<?xml version="1.0" encoding="utf-8"?>
<!-- Generator: Adobe Illustrator 16.0.0, SVG Export Plug-In . SVG Version: 6.00 Build 0)  -->
<!DOCTYPE svg PUBLIC "-//W3C//DTD SVG 1.1//EN" "http://www.w3.org/Graphics/SVG/1.1/DTD/svg11.dtd">
<svg version="1.1" id="svg2" xmlns="http://www.w3.org/2000/svg" xmlns:xlink="http://www.w3.org/1999/xlink" x="0px" y="0px"
	 width="559.187px" height="553.42px" viewBox="0 0 559.187 553.42" enable-background="new 0 0 559.187 553.42"
	 xml:space="preserve">
<linearGradient id="path2427_1_" gradientUnits="userSpaceOnUse" x1="182.3403" y1="592.594" x2="418.6908" y2="592.594" gradientTransform="matrix(1 0 0 -1 -148.7803 872.5942)">
	<stop  offset="0" style="stop-color:#6DB1D1"/>
	<stop  offset="1" style="stop-color:#0000FF"/>
</linearGradient>
<path id="path2427" fill="url(#path2427_1_)" d="M158.48,139.1c22.09-23.24,21.17-71.367-1.75-91.108
	C132.31,26.96,81.74,27.838,61,49.654C38.9,72.89,39.83,121.02,62.75,140.76C87.17,161.79,137.73,160.92,158.48,139.1z
	 M109.62,182.58c-68.07,0-76.06,20.33-76.06,193.609v151.07h76.23h76.23V417.159c0-60.56,2.989-110.1,6.649-110.1
	c3.65,0,23.95,10.75,45.09,23.91c24.87,15.49,28.23,19.86,41.021,19.07l-0.74-39.63c-0.72,0.229-1.34-0.381-1.86-0.381
	c-7.02,0-23.97-25.18-49.31-52.31C161.16,187.38,153.67,182.58,109.62,182.58L109.62,182.58z"/>
<linearGradient id="path8876_1_" gradientUnits="userSpaceOnUse" x1="293.4585" y1="608.4983" x2="547.4785" y2="608.4983" gradientTransform="matrix(0.8577 0 0 -1 52.4027 888.4995)">
	<stop  offset="0" style="stop-color:#0000FF"/>
	<stop  offset="1" style="stop-color:#000080"/>
</linearGradient>
<path id="path8876" fill="url(#path8876_1_)" d="M407.91,139.1c-22.09-23.24-21.17-71.367,1.75-91.108
	c24.42-21.031,74.99-20.153,95.729,1.662c22.101,23.236,21.181,71.366-1.75,91.106C479.229,161.79,428.66,160.92,407.91,139.1z
	 M456.77,182.58c68.07,0,76.07,20.33,76.07,193.609v151.07H456.61h-76.23V417.159c0-60.56-3-110.1-6.66-110.1
	c-3.649,0-23.949,10.75-45.09,23.91c-24.87,15.49-45.609,19.39-58.41,18.6l7.181-39.159c0.72,0.229,1.34-0.381,1.859-0.381
	c7.021,0,34.92-25.18,60.261-52.31C405.23,187.38,412.72,182.58,456.77,182.58L456.77,182.58z"/>
</svg>
